<mxfile host="Electron" agent="Mozilla/5.0 (Windows NT 10.0; Win64; x64) AppleWebKit/537.36 (KHTML, like Gecko) draw.io/24.7.8 Chrome/128.0.6613.36 Electron/32.0.1 Safari/537.36" version="24.7.8">
  <diagram id="C5RBs43oDa-KdzZeNtuy" name="Page-1">
    <mxGraphModel dx="1430" dy="826" grid="0" gridSize="10" guides="1" tooltips="1" connect="1" arrows="1" fold="1" page="0" pageScale="1" pageWidth="827" pageHeight="1169" math="0" shadow="0">
      <root>
        <mxCell id="WIyWlLk6GJQsqaUBKTNV-0" />
        <mxCell id="WIyWlLk6GJQsqaUBKTNV-1" parent="WIyWlLk6GJQsqaUBKTNV-0" />
        <mxCell id="IO_S5Y9fnIdnLGKTK-77-0" value="" style="shape=waypoint;sketch=0;fillStyle=solid;size=6;pointerEvents=1;points=[];fillColor=none;resizable=0;rotatable=0;perimeter=centerPerimeter;snapToPoint=1;" parent="WIyWlLk6GJQsqaUBKTNV-1" vertex="1">
          <mxGeometry x="737" y="210" width="20" height="20" as="geometry" />
        </mxCell>
        <mxCell id="IO_S5Y9fnIdnLGKTK-77-7" value="" style="edgeStyle=orthogonalEdgeStyle;rounded=0;orthogonalLoop=1;jettySize=auto;html=1;" parent="WIyWlLk6GJQsqaUBKTNV-1" source="IO_S5Y9fnIdnLGKTK-77-1" target="IO_S5Y9fnIdnLGKTK-77-2" edge="1">
          <mxGeometry relative="1" as="geometry" />
        </mxCell>
        <mxCell id="IO_S5Y9fnIdnLGKTK-77-13" value="Imagem" style="edgeLabel;html=1;align=center;verticalAlign=middle;resizable=0;points=[];fontStyle=1" parent="IO_S5Y9fnIdnLGKTK-77-7" vertex="1" connectable="0">
          <mxGeometry x="-0.2" relative="1" as="geometry">
            <mxPoint as="offset" />
          </mxGeometry>
        </mxCell>
        <mxCell id="IO_S5Y9fnIdnLGKTK-77-1" value="&lt;b&gt;PRÉ-OCR&lt;/b&gt;" style="rhombus;whiteSpace=wrap;html=1;" parent="WIyWlLk6GJQsqaUBKTNV-1" vertex="1">
          <mxGeometry x="248" y="180" width="80" height="80" as="geometry" />
        </mxCell>
        <mxCell id="IO_S5Y9fnIdnLGKTK-77-8" value="" style="edgeStyle=orthogonalEdgeStyle;rounded=0;orthogonalLoop=1;jettySize=auto;html=1;" parent="WIyWlLk6GJQsqaUBKTNV-1" source="IO_S5Y9fnIdnLGKTK-77-2" target="IO_S5Y9fnIdnLGKTK-77-3" edge="1">
          <mxGeometry relative="1" as="geometry" />
        </mxCell>
        <mxCell id="emc-SJDjb3-GtYumTHaR-0" value="OCR Tree" style="edgeLabel;html=1;align=center;verticalAlign=middle;resizable=0;points=[];fontStyle=1" vertex="1" connectable="0" parent="IO_S5Y9fnIdnLGKTK-77-8">
          <mxGeometry x="-0.4286" y="-1" relative="1" as="geometry">
            <mxPoint x="12" y="-1" as="offset" />
          </mxGeometry>
        </mxCell>
        <mxCell id="IO_S5Y9fnIdnLGKTK-77-2" value="&lt;b&gt;OCR&lt;/b&gt;" style="rhombus;whiteSpace=wrap;html=1;" parent="WIyWlLk6GJQsqaUBKTNV-1" vertex="1">
          <mxGeometry x="411" y="180" width="80" height="80" as="geometry" />
        </mxCell>
        <mxCell id="IO_S5Y9fnIdnLGKTK-77-9" value="" style="edgeStyle=orthogonalEdgeStyle;rounded=0;orthogonalLoop=1;jettySize=auto;html=1;" parent="WIyWlLk6GJQsqaUBKTNV-1" source="IO_S5Y9fnIdnLGKTK-77-3" target="IO_S5Y9fnIdnLGKTK-77-0" edge="1">
          <mxGeometry relative="1" as="geometry" />
        </mxCell>
        <mxCell id="IO_S5Y9fnIdnLGKTK-77-12" value="Texto" style="edgeLabel;html=1;align=center;verticalAlign=middle;resizable=0;points=[];fontStyle=1" parent="IO_S5Y9fnIdnLGKTK-77-9" vertex="1" connectable="0">
          <mxGeometry x="-0.0286" y="2" relative="1" as="geometry">
            <mxPoint x="-2" y="2" as="offset" />
          </mxGeometry>
        </mxCell>
        <mxCell id="IO_S5Y9fnIdnLGKTK-77-3" value="&lt;b&gt;PÓS-OCR&lt;/b&gt;" style="rhombus;whiteSpace=wrap;html=1;" parent="WIyWlLk6GJQsqaUBKTNV-1" vertex="1">
          <mxGeometry x="600" y="180" width="80" height="80" as="geometry" />
        </mxCell>
        <mxCell id="IO_S5Y9fnIdnLGKTK-77-6" value="" style="edgeStyle=orthogonalEdgeStyle;rounded=0;orthogonalLoop=1;jettySize=auto;html=1;" parent="WIyWlLk6GJQsqaUBKTNV-1" source="IO_S5Y9fnIdnLGKTK-77-5" target="IO_S5Y9fnIdnLGKTK-77-1" edge="1">
          <mxGeometry relative="1" as="geometry" />
        </mxCell>
        <mxCell id="IO_S5Y9fnIdnLGKTK-77-11" value="Imagem" style="edgeLabel;html=1;align=center;verticalAlign=middle;resizable=0;points=[];fontStyle=1" parent="IO_S5Y9fnIdnLGKTK-77-6" vertex="1" connectable="0">
          <mxGeometry x="-0.6" y="1" relative="1" as="geometry">
            <mxPoint x="24" y="1" as="offset" />
          </mxGeometry>
        </mxCell>
        <mxCell id="IO_S5Y9fnIdnLGKTK-77-5" value="&lt;b&gt;INPUT&lt;/b&gt;" style="strokeWidth=2;html=1;shape=mxgraph.flowchart.start_2;whiteSpace=wrap;" parent="WIyWlLk6GJQsqaUBKTNV-1" vertex="1">
          <mxGeometry x="110" y="190" width="60" height="60" as="geometry" />
        </mxCell>
        <mxCell id="emc-SJDjb3-GtYumTHaR-3" style="edgeStyle=orthogonalEdgeStyle;rounded=0;orthogonalLoop=1;jettySize=auto;html=1;" edge="1" parent="WIyWlLk6GJQsqaUBKTNV-1">
          <mxGeometry relative="1" as="geometry">
            <mxPoint x="439" y="139" as="sourcePoint" />
            <mxPoint x="525" y="214" as="targetPoint" />
          </mxGeometry>
        </mxCell>
        <mxCell id="emc-SJDjb3-GtYumTHaR-2" value="&lt;b&gt;INPUT&lt;/b&gt;" style="strokeWidth=2;html=1;shape=mxgraph.flowchart.start_2;whiteSpace=wrap;" vertex="1" parent="WIyWlLk6GJQsqaUBKTNV-1">
          <mxGeometry x="384" y="109" width="60" height="60" as="geometry" />
        </mxCell>
        <mxCell id="emc-SJDjb3-GtYumTHaR-4" value="OCR Tree" style="edgeLabel;html=1;align=center;verticalAlign=middle;resizable=0;points=[];fontStyle=1" vertex="1" connectable="0" parent="WIyWlLk6GJQsqaUBKTNV-1">
          <mxGeometry x="490.9971428571429" y="139" as="geometry" />
        </mxCell>
        <mxCell id="emc-SJDjb3-GtYumTHaR-5" value="" style="endArrow=classic;html=1;rounded=0;dashed=1;" edge="1" parent="WIyWlLk6GJQsqaUBKTNV-1">
          <mxGeometry width="50" height="50" relative="1" as="geometry">
            <mxPoint x="209" y="210" as="sourcePoint" />
            <mxPoint x="359" y="210" as="targetPoint" />
            <Array as="points">
              <mxPoint x="209" y="160" />
              <mxPoint x="360" y="160" />
            </Array>
          </mxGeometry>
        </mxCell>
        <mxCell id="emc-SJDjb3-GtYumTHaR-6" value="" style="endArrow=classic;html=1;rounded=0;dashed=1;" edge="1" parent="WIyWlLk6GJQsqaUBKTNV-1">
          <mxGeometry width="50" height="50" relative="1" as="geometry">
            <mxPoint x="540" y="210" as="sourcePoint" />
            <mxPoint x="700" y="210" as="targetPoint" />
            <Array as="points">
              <mxPoint x="540" y="160" />
              <mxPoint x="700" y="160" />
            </Array>
          </mxGeometry>
        </mxCell>
        <mxCell id="emc-SJDjb3-GtYumTHaR-8" value="" style="endArrow=none;html=1;rounded=0;strokeWidth=2;entryX=0.025;entryY=0.75;entryDx=0;entryDy=0;entryPerimeter=0;exitX=0;exitY=0;exitDx=0;exitDy=0;" edge="1" parent="WIyWlLk6GJQsqaUBKTNV-1" source="emc-SJDjb3-GtYumTHaR-56" target="IO_S5Y9fnIdnLGKTK-77-1">
          <mxGeometry width="50" height="50" relative="1" as="geometry">
            <mxPoint x="110" y="364" as="sourcePoint" />
            <mxPoint x="250" y="250" as="targetPoint" />
          </mxGeometry>
        </mxCell>
        <mxCell id="emc-SJDjb3-GtYumTHaR-36" value="" style="group" vertex="1" connectable="0" parent="WIyWlLk6GJQsqaUBKTNV-1">
          <mxGeometry x="136" y="370" width="346" height="92" as="geometry" />
        </mxCell>
        <mxCell id="emc-SJDjb3-GtYumTHaR-15" value="" style="edgeStyle=orthogonalEdgeStyle;rounded=0;orthogonalLoop=1;jettySize=auto;html=1;" edge="1" parent="emc-SJDjb3-GtYumTHaR-36" source="emc-SJDjb3-GtYumTHaR-16" target="emc-SJDjb3-GtYumTHaR-27">
          <mxGeometry relative="1" as="geometry" />
        </mxCell>
        <mxCell id="emc-SJDjb3-GtYumTHaR-16" value="&lt;b&gt;Remoção de sombra de baínha&lt;/b&gt;" style="rounded=1;whiteSpace=wrap;html=1;absoluteArcSize=1;arcSize=14;strokeWidth=2;" vertex="1" parent="emc-SJDjb3-GtYumTHaR-36">
          <mxGeometry x="101.0490924922859" y="11.666666666666666" width="71.45662428130623" height="46.666666666666664" as="geometry" />
        </mxCell>
        <mxCell id="emc-SJDjb3-GtYumTHaR-23" value="" style="edgeStyle=orthogonalEdgeStyle;rounded=0;orthogonalLoop=1;jettySize=auto;html=1;" edge="1" parent="emc-SJDjb3-GtYumTHaR-36" source="emc-SJDjb3-GtYumTHaR-24" target="emc-SJDjb3-GtYumTHaR-16">
          <mxGeometry relative="1" as="geometry" />
        </mxCell>
        <mxCell id="emc-SJDjb3-GtYumTHaR-24" value="&lt;b&gt;Correção de rotação&lt;/b&gt;" style="rounded=1;whiteSpace=wrap;html=1;absoluteArcSize=1;arcSize=14;strokeWidth=2;" vertex="1" parent="emc-SJDjb3-GtYumTHaR-36">
          <mxGeometry x="2.796234105489834" y="11.666666666666666" width="71.45662428130623" height="46.666666666666664" as="geometry" />
        </mxCell>
        <mxCell id="emc-SJDjb3-GtYumTHaR-27" value="&lt;b&gt;Upscaling&lt;/b&gt;" style="rounded=1;whiteSpace=wrap;html=1;absoluteArcSize=1;arcSize=14;strokeWidth=2;" vertex="1" parent="emc-SJDjb3-GtYumTHaR-36">
          <mxGeometry x="199.30195087908197" y="11.666666666666666" width="71.45662428130623" height="46.666666666666664" as="geometry" />
        </mxCell>
        <mxCell id="emc-SJDjb3-GtYumTHaR-29" value="" style="endArrow=classic;html=1;rounded=0;dashed=1;" edge="1" parent="emc-SJDjb3-GtYumTHaR-36">
          <mxGeometry width="50" height="50" relative="1" as="geometry">
            <mxPoint x="86.75776763602465" y="35" as="sourcePoint" />
            <mxPoint x="181.88439871051358" y="35" as="targetPoint" />
            <Array as="points">
              <mxPoint x="85.86455983250832" y="69.22222222222221" />
              <mxPoint x="181.88439871051358" y="70" />
            </Array>
          </mxGeometry>
        </mxCell>
        <mxCell id="emc-SJDjb3-GtYumTHaR-31" value="" style="endArrow=classic;html=1;rounded=0;dashed=1;" edge="1" parent="emc-SJDjb3-GtYumTHaR-36">
          <mxGeometry width="50" height="50" relative="1" as="geometry">
            <mxPoint x="184.1174182193044" y="35" as="sourcePoint" />
            <mxPoint x="276.1178219814862" y="35" as="targetPoint" />
            <Array as="points">
              <mxPoint x="184.1174182193044" />
              <mxPoint x="276.1178219814862" />
            </Array>
          </mxGeometry>
        </mxCell>
        <mxCell id="emc-SJDjb3-GtYumTHaR-33" value="" style="endArrow=classic;html=1;rounded=0;entryX=0;entryY=0.5;entryDx=0;entryDy=0;" edge="1" parent="emc-SJDjb3-GtYumTHaR-36" target="emc-SJDjb3-GtYumTHaR-24">
          <mxGeometry width="50" height="50" relative="1" as="geometry">
            <mxPoint x="-24" y="35" as="sourcePoint" />
            <mxPoint x="-6.135843929673442" y="23.333333333333332" as="targetPoint" />
          </mxGeometry>
        </mxCell>
        <mxCell id="emc-SJDjb3-GtYumTHaR-34" value="" style="endArrow=classic;html=1;rounded=0;dashed=1;" edge="1" parent="emc-SJDjb3-GtYumTHaR-36">
          <mxGeometry width="50" height="50" relative="1" as="geometry">
            <mxPoint x="-7.475655634947934" y="35" as="sourcePoint" />
            <mxPoint x="84.52474812723383" y="35" as="targetPoint" />
            <Array as="points">
              <mxPoint x="-7.475655634947934" />
              <mxPoint x="84.52474812723383" />
            </Array>
          </mxGeometry>
        </mxCell>
        <mxCell id="emc-SJDjb3-GtYumTHaR-35" value="..." style="text;html=1;align=center;verticalAlign=middle;resizable=0;points=[];autosize=1;strokeColor=none;fillColor=none;fontStyle=1;fontSize=15;spacing=0;" vertex="1" parent="emc-SJDjb3-GtYumTHaR-36">
          <mxGeometry x="286.00452715445704" y="15.670972222222218" width="30" height="30" as="geometry" />
        </mxCell>
        <mxCell id="emc-SJDjb3-GtYumTHaR-52" style="edgeStyle=orthogonalEdgeStyle;rounded=0;orthogonalLoop=1;jettySize=auto;html=1;entryX=0.043;entryY=0.655;entryDx=0;entryDy=0;entryPerimeter=0;" edge="1" parent="emc-SJDjb3-GtYumTHaR-36" source="emc-SJDjb3-GtYumTHaR-27">
          <mxGeometry relative="1" as="geometry">
            <mxPoint x="290.2945271544572" y="34.32097222222228" as="targetPoint" />
          </mxGeometry>
        </mxCell>
        <mxCell id="emc-SJDjb3-GtYumTHaR-56" value="" style="rounded=0;whiteSpace=wrap;html=1;fillColor=none;" vertex="1" parent="emc-SJDjb3-GtYumTHaR-36">
          <mxGeometry x="-28" y="-6" width="341" height="91" as="geometry" />
        </mxCell>
        <mxCell id="emc-SJDjb3-GtYumTHaR-38" value="" style="group" vertex="1" connectable="0" parent="WIyWlLk6GJQsqaUBKTNV-1">
          <mxGeometry x="477" y="370" width="350" height="70" as="geometry" />
        </mxCell>
        <mxCell id="emc-SJDjb3-GtYumTHaR-39" value="" style="edgeStyle=orthogonalEdgeStyle;rounded=0;orthogonalLoop=1;jettySize=auto;html=1;" edge="1" parent="emc-SJDjb3-GtYumTHaR-38" source="emc-SJDjb3-GtYumTHaR-40" target="emc-SJDjb3-GtYumTHaR-43">
          <mxGeometry relative="1" as="geometry" />
        </mxCell>
        <mxCell id="emc-SJDjb3-GtYumTHaR-40" value="&lt;b&gt;Ajuste de Bounding Boxes&lt;/b&gt;" style="rounded=1;whiteSpace=wrap;html=1;absoluteArcSize=1;arcSize=14;strokeWidth=2;" vertex="1" parent="emc-SJDjb3-GtYumTHaR-38">
          <mxGeometry x="126.49474674075164" y="11.666666666666666" width="72.28271242328665" height="46.666666666666664" as="geometry" />
        </mxCell>
        <mxCell id="emc-SJDjb3-GtYumTHaR-41" value="" style="edgeStyle=orthogonalEdgeStyle;rounded=0;orthogonalLoop=1;jettySize=auto;html=1;" edge="1" parent="emc-SJDjb3-GtYumTHaR-38" source="emc-SJDjb3-GtYumTHaR-42" target="emc-SJDjb3-GtYumTHaR-40">
          <mxGeometry relative="1" as="geometry" />
        </mxCell>
        <mxCell id="emc-SJDjb3-GtYumTHaR-42" value="&lt;b&gt;Limpeza de blocos vazios&lt;/b&gt;" style="rounded=1;whiteSpace=wrap;html=1;absoluteArcSize=1;arcSize=14;strokeWidth=2;" vertex="1" parent="emc-SJDjb3-GtYumTHaR-38">
          <mxGeometry x="27.10601715873249" y="11.666666666666666" width="72.28271242328665" height="46.666666666666664" as="geometry" />
        </mxCell>
        <mxCell id="emc-SJDjb3-GtYumTHaR-43" value="&lt;b&gt;União de blocos&lt;/b&gt;" style="rounded=1;whiteSpace=wrap;html=1;absoluteArcSize=1;arcSize=14;strokeWidth=2;" vertex="1" parent="emc-SJDjb3-GtYumTHaR-38">
          <mxGeometry x="225.8834763227708" y="11.666666666666666" width="72.28271242328665" height="46.666666666666664" as="geometry" />
        </mxCell>
        <mxCell id="emc-SJDjb3-GtYumTHaR-44" value="" style="endArrow=classic;html=1;rounded=0;dashed=1;" edge="1" parent="emc-SJDjb3-GtYumTHaR-38">
          <mxGeometry width="50" height="50" relative="1" as="geometry">
            <mxPoint x="112.0382042560943" y="35" as="sourcePoint" />
            <mxPoint x="208.26456516959468" y="35" as="targetPoint" />
            <Array as="points">
              <mxPoint x="111.13467035080323" y="69.22222222222221" />
              <mxPoint x="208.26456516959468" y="70" />
            </Array>
          </mxGeometry>
        </mxCell>
        <mxCell id="emc-SJDjb3-GtYumTHaR-45" value="" style="endArrow=classic;html=1;rounded=0;dashed=1;" edge="1" parent="emc-SJDjb3-GtYumTHaR-38">
          <mxGeometry width="50" height="50" relative="1" as="geometry">
            <mxPoint x="210.52339993282237" y="35" as="sourcePoint" />
            <mxPoint x="303.58739217780396" y="35" as="targetPoint" />
            <Array as="points">
              <mxPoint x="210.52339993282237" />
              <mxPoint x="303.58739217780396" />
            </Array>
          </mxGeometry>
        </mxCell>
        <mxCell id="emc-SJDjb3-GtYumTHaR-46" value="" style="endArrow=classic;html=1;rounded=0;entryX=0;entryY=0.5;entryDx=0;entryDy=0;" edge="1" parent="emc-SJDjb3-GtYumTHaR-38" target="emc-SJDjb3-GtYumTHaR-42">
          <mxGeometry width="50" height="50" relative="1" as="geometry">
            <mxPoint y="35" as="sourcePoint" />
            <mxPoint x="18.070678105821663" y="23.333333333333332" as="targetPoint" />
          </mxGeometry>
        </mxCell>
        <mxCell id="emc-SJDjb3-GtYumTHaR-47" value="" style="endArrow=classic;html=1;rounded=0;dashed=1;" edge="1" parent="emc-SJDjb3-GtYumTHaR-38">
          <mxGeometry width="50" height="50" relative="1" as="geometry">
            <mxPoint x="16.715377247885037" y="35" as="sourcePoint" />
            <mxPoint x="109.7793694928666" y="35" as="targetPoint" />
            <Array as="points">
              <mxPoint x="16.715377247885037" />
              <mxPoint x="109.7793694928666" />
            </Array>
          </mxGeometry>
        </mxCell>
        <mxCell id="emc-SJDjb3-GtYumTHaR-48" value="..." style="text;html=1;align=center;verticalAlign=middle;resizable=0;points=[];autosize=1;strokeColor=none;fillColor=none;fontStyle=1;fontSize=15;spacing=0;" vertex="1" parent="emc-SJDjb3-GtYumTHaR-38">
          <mxGeometry x="317.06671821982644" y="16.50097222222222" width="30" height="30" as="geometry" />
        </mxCell>
        <mxCell id="emc-SJDjb3-GtYumTHaR-55" style="edgeStyle=orthogonalEdgeStyle;rounded=0;orthogonalLoop=1;jettySize=auto;html=1;entryX=0.069;entryY=0.605;entryDx=0;entryDy=0;entryPerimeter=0;" edge="1" parent="emc-SJDjb3-GtYumTHaR-38" source="emc-SJDjb3-GtYumTHaR-43" target="emc-SJDjb3-GtYumTHaR-48">
          <mxGeometry relative="1" as="geometry" />
        </mxCell>
        <mxCell id="emc-SJDjb3-GtYumTHaR-50" value="" style="endArrow=none;html=1;rounded=0;strokeWidth=2;curved=0;exitX=1;exitY=0;exitDx=0;exitDy=0;" edge="1" parent="WIyWlLk6GJQsqaUBKTNV-1" source="emc-SJDjb3-GtYumTHaR-56">
          <mxGeometry width="50" height="50" relative="1" as="geometry">
            <mxPoint x="444" y="360" as="sourcePoint" />
            <mxPoint x="330" y="240" as="targetPoint" />
          </mxGeometry>
        </mxCell>
        <mxCell id="emc-SJDjb3-GtYumTHaR-53" value="" style="endArrow=none;html=1;rounded=0;strokeWidth=2;exitX=1;exitY=0;exitDx=0;exitDy=0;" edge="1" parent="WIyWlLk6GJQsqaUBKTNV-1" source="emc-SJDjb3-GtYumTHaR-57">
          <mxGeometry width="50" height="50" relative="1" as="geometry">
            <mxPoint x="799" y="320" as="sourcePoint" />
            <mxPoint x="680" y="250" as="targetPoint" />
          </mxGeometry>
        </mxCell>
        <mxCell id="emc-SJDjb3-GtYumTHaR-54" value="" style="endArrow=none;html=1;rounded=0;strokeWidth=2;entryX=0.125;entryY=0.875;entryDx=0;entryDy=0;entryPerimeter=0;exitX=0;exitY=0;exitDx=0;exitDy=0;" edge="1" parent="WIyWlLk6GJQsqaUBKTNV-1" source="emc-SJDjb3-GtYumTHaR-57" target="IO_S5Y9fnIdnLGKTK-77-3">
          <mxGeometry width="50" height="50" relative="1" as="geometry">
            <mxPoint x="481" y="360" as="sourcePoint" />
            <mxPoint x="600" y="290" as="targetPoint" />
          </mxGeometry>
        </mxCell>
        <mxCell id="emc-SJDjb3-GtYumTHaR-57" value="" style="rounded=0;whiteSpace=wrap;html=1;fillColor=none;" vertex="1" parent="WIyWlLk6GJQsqaUBKTNV-1">
          <mxGeometry x="475" y="364" width="343" height="91" as="geometry" />
        </mxCell>
      </root>
    </mxGraphModel>
  </diagram>
</mxfile>
